<svg xmlns="http://www.w3.org/2000/svg" width="96" height="96" viewBox="0 0 96 96" fill="none">
  <defs>
    <linearGradient id="a" x1="0" y1="0" x2="1" y2="1">
      <stop offset="0" stop-color="#49f2c2"/>
      <stop offset="1" stop-color="#7c5cff"/>
    </linearGradient>
    <linearGradient id="seed" x1="0" y1="0" x2="1" y2="1">
      <stop offset="0" stop-color="#ff3aa6"/>
      <stop offset="1" stop-color="#ffcc66"/>
    </linearGradient>
    <filter id="shadow" x="-30%" y="-30%" width="160%" height="160%">
      <feDropShadow dx="0" dy="10" stdDeviation="8" flood-color="#000" flood-opacity="0.25"/>
    </filter>
  </defs>

  <g filter="url(#shadow)">
    <path d="M48 14c18 0 30 16 30 34 0 22-12 38-30 38S18 70 18 48c0-18 12-34 30-34Z" fill="rgba(255,255,255,0.06)" stroke="rgba(255,255,255,0.16)" stroke-width="2"/>
    <path d="M48 20c14 0 22 12 22 28 0 18-8 30-22 30S26 66 26 48c0-16 8-28 22-28Z" fill="url(#a)" opacity="0.35"/>
    <ellipse cx="50" cy="54" rx="12" ry="14" fill="url(#seed)" opacity="0.9"/>
    <ellipse cx="46" cy="50" rx="3" ry="3" fill="rgba(255,255,255,0.35)"/>
    <path d="M38 34c-6 4-10 10-10 18" stroke="rgba(255,255,255,0.20)" stroke-width="3" stroke-linecap="round"/>
  </g>
</svg>
