<svg xmlns="http://www.w3.org/2000/svg" width="96" height="96" viewBox="0 0 96 96" fill="none">
  <defs>
    <linearGradient id="g" x1="0" y1="0" x2="1" y2="1">
      <stop offset="0" stop-color="#ff3aa6"/>
      <stop offset="1" stop-color="#7c5cff"/>
    </linearGradient>
    <filter id="shadow" x="-30%" y="-30%" width="160%" height="160%">
      <feDropShadow dx="0" dy="10" stdDeviation="8" flood-color="#000" flood-opacity="0.25"/>
    </filter>
  </defs>

  <g filter="url(#shadow)">
    <path d="M34 18c-10 6-15 22-10 40 5 18 18 32 30 30 12-2 18-18 13-36-6-20-21-40-33-34Z"
          fill="rgba(255,255,255,0.06)" stroke="rgba(255,255,255,0.18)" stroke-width="2"/>
    <path d="M39 26c-6 10-5 26 3 40" stroke="url(#g)" stroke-width="3" stroke-linecap="round" opacity="0.9"/>

    <path d="M54 26c-8 4-12 16-8 30 4 14 14 24 24 23 10-1 15-13 11-27-4-15-16-30-27-26Z"
          fill="rgba(255,255,255,0.05)" stroke="rgba(255,255,255,0.16)" stroke-width="2" opacity="0.95"/>
    <path d="M58 32c-4 8-3 18 2 28" stroke="url(#g)" stroke-width="3" stroke-linecap="round" opacity="0.75"/>
  </g>
</svg>
