<svg xmlns="http://www.w3.org/2000/svg" width="96" height="96" viewBox="0 0 96 96" fill="none">
  <defs>
    <linearGradient id="g" x1="0" y1="0" x2="1" y2="1">
      <stop offset="0" stop-color="#ff3aa6"/>
      <stop offset="1" stop-color="#7c5cff"/>
    </linearGradient>
    <filter id="shadow" x="-30%" y="-30%" width="160%" height="160%">
      <feDropShadow dx="0" dy="10" stdDeviation="8" flood-color="#000" flood-opacity="0.25"/>
    </filter>
  </defs>

  <g filter="url(#shadow)">
    <!-- steam -->
    <path d="M34 22c-6 6 3 10-3 16" stroke="url(#g)" stroke-width="4" stroke-linecap="round"/>
    <path d="M48 18c-6 6 3 10-3 16" stroke="url(#g)" stroke-width="4" stroke-linecap="round" opacity="0.85"/>
    <path d="M62 22c-6 6 3 10-3 16" stroke="url(#g)" stroke-width="4" stroke-linecap="round" opacity="0.7"/>

    <!-- cup -->
    <path d="M26 42h44v16c0 10-8 18-18 18H44c-10 0-18-8-18-18V42Z" fill="rgba(255,255,255,0.06)" stroke="rgba(255,255,255,0.18)" stroke-width="2"/>
    <path d="M70 48h6c6 0 10 4 10 10s-4 10-10 10h-8" stroke="rgba(255,255,255,0.22)" stroke-width="3" stroke-linecap="round"/>

    <!-- saucer -->
    <path d="M20 78c10 6 46 6 56 0" stroke="rgba(255,255,255,0.18)" stroke-width="3" stroke-linecap="round"/>
    <path d="M28 76c8 4 32 4 40 0" stroke="url(#g)" stroke-width="3" stroke-linecap="round" opacity="0.9"/>
  </g>
</svg>
