<svg xmlns="http://www.w3.org/2000/svg" width="1200" height="560" viewBox="0 0 1200 560">
  <defs>
    <linearGradient id="g" x1="0" y1="0" x2="1" y2="1">
      <stop offset="0" stop-color="#ff3aa6" stop-opacity="0.95"/>
      <stop offset="1" stop-color="#7c5cff" stop-opacity="0.95"/>
    </linearGradient>
    <filter id="s" x="-20%" y="-20%" width="140%" height="140%">
      <feDropShadow dx="0" dy="14" stdDeviation="14" flood-color="#000" flood-opacity="0.35"/>
    </filter>
  </defs>

  <rect x="0" y="0" width="1200" height="560" rx="28" fill="rgba(255,255,255,0.03)" stroke="rgba(255,255,255,0.10)"/>

  <g font-family="Inter, system-ui, -apple-system, Segoe UI, Roboto, Arial, sans-serif">
    <text x="34" y="56" font-size="12" fill="rgba(255,255,255,0.60)" font-weight="700" letter-spacing=".6">EXAMPLE CONFIGURATION (ONE DEPLOYED PATTERN)</text>

    <g filter="url(#s)">
      <!-- 1 -->
      <rect x="24" y="100" width="190" height="150" rx="18" fill="rgba(255,255,255,0.06)" stroke="rgba(255,255,255,0.12)"/>
      <text x="46" y="138" font-size="18" fill="rgba(255,255,255,0.92)" font-weight="900">Scope</text>
      <text x="46" y="168" font-size="14" fill="rgba(255,255,255,0.70)">Country coverage</text>
      <text x="46" y="192" font-size="14" fill="rgba(255,255,255,0.70)">Source scoring + leaning tags</text>
      <text x="46" y="216" font-size="14" fill="rgba(255,255,255,0.70)">Task definitions</text>

      <!-- 2 -->
      <rect x="234" y="100" width="190" height="150" rx="18" fill="rgba(255,255,255,0.06)" stroke="rgba(255,255,255,0.12)"/>
      <text x="256" y="138" font-size="18" fill="rgba(255,255,255,0.92)" font-weight="900">Acquire</text>
      <text x="256" y="168" font-size="14" fill="rgba(255,255,255,0.70)">Scrape • API • feeds</text>
      <text x="256" y="192" font-size="14" fill="rgba(255,255,255,0.70)">Parse + de‑dup + QA</text>
      <text x="256" y="216" font-size="14" fill="rgba(255,255,255,0.70)">Provenance tracking</text>

      <!-- 3 -->
      <rect x="444" y="100" width="190" height="150" rx="18" fill="rgba(255,255,255,0.06)" stroke="rgba(255,255,255,0.12)"/>
      <text x="466" y="138" font-size="18" fill="rgba(255,255,255,0.92)" font-weight="900">Patch tool</text>
      <text x="466" y="168" font-size="14" fill="rgba(255,255,255,0.70)">Normalize HTML → schema</text>
      <text x="466" y="192" font-size="14" fill="rgba(255,255,255,0.70)">Canonical text + metadata</text>
      <text x="466" y="216" font-size="14" fill="rgba(255,255,255,0.70)">Versioned fixes</text>

      <!-- 4 -->
      <rect x="654" y="100" width="190" height="150" rx="18" fill="rgba(255,255,255,0.06)" stroke="rgba(255,255,255,0.12)"/>
      <text x="676" y="138" font-size="18" fill="rgba(255,255,255,0.92)" font-weight="900">Language</text>
      <text x="676" y="168" font-size="14" fill="rgba(255,255,255,0.70)">LID + routing</text>
      <text x="676" y="192" font-size="14" fill="rgba(255,255,255,0.70)">Translation + QA gates</text>
      <text x="676" y="216" font-size="14" fill="rgba(255,255,255,0.70)">Doc store</text>

      <!-- 5 -->
      <rect x="864" y="100" width="190" height="150" rx="18" fill="rgba(255,255,255,0.06)" stroke="rgba(255,255,255,0.12)"/>
      <text x="886" y="138" font-size="18" fill="rgba(255,255,255,0.92)" font-weight="900">Model pack</text>
      <text x="886" y="168" font-size="14" fill="rgba(255,255,255,0.70)">Civic • influence • env</text>
      <text x="886" y="192" font-size="14" fill="rgba(255,255,255,0.70)">USG‑related + relevance</text>
      <text x="886" y="216" font-size="14" fill="rgba(255,255,255,0.70)">Embeddings + KB / RAG</text>

      <!-- 6 -->
      <rect x="1068" y="100" width="102" height="150" rx="18" fill="url(#g)" stroke="rgba(255,255,255,0.20)"/>
      <text x="1082" y="132" font-size="16" fill="rgba(255,255,255,0.96)" font-weight="900">Signals</text>
      <text x="1082" y="156" font-size="12" fill="rgba(255,255,255,0.92)">Geo: CLIFF + Gemini</text>
      <text x="1082" y="176" font-size="12" fill="rgba(255,255,255,0.92)">2‑stage reconcile</text>
      <text x="1082" y="196" font-size="12" fill="rgba(255,255,255,0.92)">Counts + modifiers</text>
      <text x="1082" y="216" font-size="12" fill="rgba(255,255,255,0.92)">Surge + forecast</text>
      <text x="1082" y="236" font-size="12" fill="rgba(255,255,255,0.92)">Maps + dashboards</text>
    </g>

    <!-- Guardrails band -->
    <rect x="70" y="330" width="1060" height="150" rx="22" fill="rgba(255,255,255,0.04)" stroke="rgba(255,255,255,0.10)"/>
    <text x="104" y="378" font-size="16" fill="rgba(255,255,255,0.92)" font-weight="900">Guardrails + evaluation harness</text>
    <text x="104" y="406" font-size="14" fill="rgba(255,255,255,0.70)">Sampling QA • uncertainty flags • drift monitors • benchmark sets • error analysis • audit logs</text>
    <text x="104" y="430" font-size="14" fill="rgba(255,255,255,0.70)">Keeps cross‑country comparability and subnational consistency under frequent updates.</text>

    <!-- Arrows -->
    <g stroke="rgba(255,255,255,0.35)" stroke-width="4" fill="none" stroke-linecap="round" stroke-linejoin="round">
      <path d="M214 175 L226 175" />
      <path d="M424 175 L436 175" />
      <path d="M634 175 L646 175" />
      <path d="M844 175 L856 175" />
      <path d="M1054 175 L1066 175" />
    </g>
    <g fill="rgba(255,255,255,0.35)">
      <polygon points="226,175 214,166 214,184"/>
      <polygon points="436,175 424,166 424,184"/>
      <polygon points="646,175 634,166 634,184"/>
      <polygon points="856,175 844,166 844,184"/>
      <polygon points="1066,175 1054,166 1054,184"/>
    </g>
  </g>
</svg>
